<?xml version="1.0" encoding="utf-8"?>
<!-- Generator: Adobe Illustrator 21.0.1, SVG Export Plug-In . SVG Version: 6.00 Build 0)  -->
<svg version="1.1" id="Layer_1" xmlns="http://www.w3.org/2000/svg" xmlns:xlink="http://www.w3.org/1999/xlink" x="0px" y="0px"
	 viewBox="0 0 706.8 179.9" style="enable-background:new 0 0 706.8 179.9;" xml:space="preserve">
<style type="text/css">
	.st0{fill:#111;}
	.st1{fill:#1090FF;}
</style>
<g>
	<g class="st0">
		<path d="M31.9,96.2c1.2,11.7,8.5,18.1,20.4,18.1c6.8,0,18.2-2,23.5-3.9c0.5,4-1.3,10.8-3.7,14.5c-5.5,3-14.8,5.7-25.5,5.7
			c-23.8,0-37.3-16-37.3-37.6c0-23.7,15.1-40.6,38.5-40.6c20.4,0,28.8,13.8,28.8,35.4c0,2.5-0.3,5.7-0.6,8.4H31.9z M55.5,82.4
			c0.9-7.8-1.7-16.9-10.5-16.9c-7.6,0-13,7-13.8,16.9H55.5z"/>
		<path d="M134.2,70.4h-10.5c0.2-4.2,1.8-10.3,3.6-13.8c3.9-1.8,10.7-3,17.1-3c3.9,0,9.1,0.6,11.7,1.6v48c0,3.8,0.3,7.6,1.2,11.1
			h10.8c0.1,0.8,0.1,1.7,0.1,2.5c0,2.7-1.2,7.6-2.5,10c-5.5,2-17.8,3-25.8,3c-2.1-3.8-3.6-8.2-4.3-13h-1.3
			c-4.1,7.6-11,13.8-22.9,13.8c-12.4,0-23.7-4.3-23.7-27.9c0-9.4,0.3-22,0.9-32.4H77.4c0.1-4.2,1.8-10.6,3.6-13.8
			c3.9-1.8,10.6-3,17.1-3c3.9,0,9.1,0.6,11.7,1.6v43.8c0,9.7,2.7,14.8,11.8,14.8c4.6,0,9.3-3.1,12.6-7V70.4z"/>
		<path d="M200.5,69.4c1.7-7.9,8.8-16.9,19.3-16.9c2.7,0,5.8,0.6,7.6,1.5c2,2.7,3,7.9,3,13c0,2.6-0.3,5.1-0.9,7
			c-3.1-1.8-8.5-2.5-11.4-2.5c-6.6,0-12.8,3.6-16.6,9.9v31.9c4.5,0.5,11.4,1.8,14.7,3.1c0.9,2.4,1.4,8.7,0.9,11.7h-48.4
			c0.3-3.6,1.3-8.5,2.4-11c2.1-1.6,5.8-3.1,8.7-4.2V70.4h-10.5c0-4.2,1.3-10.5,3.3-13.8c3.6-1.8,9.4-3,15.3-3
			c3.6,0,8.1,0.6,10.3,1.6v14.1H200.5z"/>
		<path d="M273.1,119.9c-4.2,6.8-10.9,10.8-22,10.8c-11,0-21.6-7.3-21.6-22.3c0-16.6,13.8-24.9,30.6-24.9c4.3,0,8.7,0.9,12.3,2.4
			v-5.5c0-7.8-4.5-11.1-13.2-11.1c-6.9,0-18.7,3.3-24.3,6.3c-0.3-1.2-0.6-3.9-0.6-5.2c0-5.1,1.3-10.8,3-13.9
			c5.6-2.1,17.8-3.9,27-3.9c18.9,0,29.2,7.2,29.2,26.2v25.2c0,4.6,0.9,8.8,2.1,11.1c2.9,0,7.2-0.6,9.8-1.2c0.2,1,0.2,1.8,0.2,2.4
			c0,3.3-1.1,7-2.5,10c-4,2.4-13.2,4.5-21.3,4.5c-3.3-1.7-6-6-7.2-10.8H273.1z M272.8,96.2c-2.7-0.6-6.3-0.9-8.2-0.9
			c-8.7,0-13.3,4.2-13.3,10.6c0,6.8,4.3,9.7,9.3,9.7c5.8,0,9.9-2.7,12.3-5.4V96.2z"/>
		<path d="M345.4,66.5c-1.6-0.9-4-1.6-6.6-1.6c-5.2,0-7.9,2.2-7.9,6.6c0,14.7,35.2,7,35.2,34.9c0,18-14.4,24.3-31,24.3
			c-10,0-19.2-1.5-27-5.7c-0.5-2.2-0.8-5.1-0.8-8.1c0-4.8,0.6-9.7,1.5-12.7c6.3,0,12,0.6,17.2,2.4v8.2c2.7,1.5,6.8,2.5,10,2.5
			c5.5,0,8.7-2.1,8.7-6.9c0-13.6-35.7-6.2-35.7-35.5c0-13.3,11-22.5,29.5-22.5c8.2,0,17.1,1.5,25.2,5.1c0.2,1.5,0.3,3.4,0.3,5.2
			c0,4.8-0.6,10.2-1.7,13.8c-6.3,0-13-1.5-17.1-3.3V66.5z"/>
		<path d="M369.9,70.4c0.1-4.2,1.8-10.6,3.6-13.8c3.9-1.8,10.6-3,17.1-3c3.9,0,9.3,0.6,11.8,1.6v58.5c3.1,0.5,8.1,1.5,10.6,2.7
			c0.5,1.7,0.8,5.2,0.8,8.4c0,1.2,0,2.2-0.2,3.3h-44.1c0.3-3.6,1.3-8.5,2.4-11c2.1-1.6,5.7-3.1,8.7-4.2V70.4H369.9z M405,26.3
			c0,8.8-5.4,13.8-13,13.8c-8.7,0-13.3-4.8-13.3-13.8c0-7.8,5.5-12.9,13.3-12.9C399.6,13.4,405,18.1,405,26.3z"/>
		<path d="M459.4,119.9c-4.2,6.8-10.9,10.8-22,10.8c-10.9,0-21.6-7.3-21.6-22.3c0-16.6,13.8-24.9,30.6-24.9c4.3,0,8.7,0.9,12.3,2.4
			v-5.5c0-7.8-4.5-11.1-13.2-11.1c-6.9,0-18.7,3.3-24.3,6.3c-0.3-1.2-0.6-3.9-0.6-5.2c0-5.1,1.3-10.8,3-13.9
			c5.5-2.1,17.8-3.9,27-3.9c18.9,0,29.2,7.2,29.2,26.2v25.2c0,4.6,0.9,8.8,2.1,11.1c2.8,0,7.2-0.6,9.8-1.2c0.1,1,0.1,1.8,0.1,2.4
			c0,3.3-1,7-2.5,10c-4.1,2.4-13.2,4.5-21.3,4.5c-3.3-1.7-6-6-7.2-10.8H459.4z M459.1,96.2c-2.7-0.6-6.3-0.9-8.2-0.9
			c-8.7,0-13.3,4.2-13.3,10.6c0,6.8,4.3,9.7,9.3,9.7c5.9,0,9.9-2.7,12.3-5.4V96.2z"/>
		<path d="M524.5,113.8c2.8,0.5,7.5,1.5,9.7,2.7c0.6,2.4,1,8.7,0.6,11.7h-43.2c0.3-3.6,1.3-8.5,2.4-11c2.1-1.6,5.8-3.1,8.7-4.2V70.4
			H492c0.1-4.2,1.8-10.6,3.6-13.8c3.6-1.8,9.4-3,15.3-3c3.6,0,8.1,0.6,10.3,1.6v11.8h2.2c4.1-8.1,11.5-14.7,24.4-14.7
			c12.6,0,24.6,3.8,24.6,27.4c0,10.8-0.5,23.4-1.2,33.7c3.2,0.5,8,1.7,10.7,2.8c0.4,1.8,0.8,5.2,0.8,8.2c0,1.2,0,2.2-0.2,3.5h-41.1
			c0.3-3.6,1-8.5,1.9-11c1.7-1.6,4.8-3.1,7-4.2V83.9c0-8.7-3-14.8-11.7-14.8c-5.9,0-11,3.8-14.2,8.1V113.8z"/>
		<path d="M601.9,96.2c1.2,11.7,8.5,18.1,20.4,18.1c6.8,0,18.2-2,23.6-3.9c0.4,4-1.4,10.8-3.8,14.5c-5.6,3-14.8,5.7-25.5,5.7
			c-23.8,0-37.3-16-37.3-37.6c0-23.7,15.1-40.6,38.5-40.6c20.4,0,28.8,13.8,28.8,35.4c0,2.5-0.3,5.7-0.6,8.4H601.9z M625.5,82.4
			c0.9-7.8-1.7-16.9-10.5-16.9c-7.6,0-13,7-13.8,16.9H625.5z"/>
		<path d="M660.6,35.6c3.9-2.1,12.4-3.6,18.1-3.6V55h20.8c0.8,3,1.3,10.5,0.8,14.8h-21.6V103c0,8.2,3.5,10.8,9.6,10.8
			c3.8,0,9.9-0.9,13.8-2c0.1,0.8,0.1,1.5,0.1,1.8c0,3.3-1.5,9-3.6,12.3c-5.7,3.1-14.8,4.8-20.4,4.8c-14.4,0-21.6-7-21.6-24.6
			c0-9.7,0.5-24.4,1.5-36.3h-11.2c0-3.6,1.2-10.6,2.7-13.8c2.2-1.4,5.8-2.7,8.2-3.3L660.6,35.6z"/>
	</g>
	<path class="st1" d="M75.6,151.8H25.8c-5.5,0-12.7-4.5-12.7-10v-10h56.9c2.2,0,5.7,1.8,5.7,4V151.8z"/>
</g>
</svg>
