<?xml version="1.0" encoding="utf-8"?>
<!-- Generator: Adobe Illustrator 16.0.0, SVG Export Plug-In . SVG Version: 6.00 Build 0)  -->
<!DOCTYPE svg PUBLIC "-//W3C//DTD SVG 1.1//EN" "http://www.w3.org/Graphics/SVG/1.1/DTD/svg11.dtd">
<svg version="1.1" id="Layer_1" xmlns="http://www.w3.org/2000/svg" xmlns:xlink="http://www.w3.org/1999/xlink" x="0px" y="0px"
	 width="205px" height="142px" viewBox="0 0 205 142" enable-background="new 0 0 205 142" xml:space="preserve">
 	<g opacity="0.4">
		<path fill="#6E96DC" d="M205,142L2.861,141.998C0.988,133.716,0,125.099,0,116.25C0,52.047,52.047,0,116.25,0
			c35.579,0,67.426,15.984,88.75,41.162V142z"/>
		<g>
			<path fill="#FFD7AA" d="M94.25,8H25c-2.2,0-4,1.8-4,4v126c0,2.2,1.8,4,4,4h96c2.2,0,4-1.8,4-4V38.75L94.25,8z"/>
			<g>
				<path fill="#FFAF82" d="M111,44c0,1.1-0.9,2-2,2H34c-1.1,0-2-0.9-2-2V21c0-1.1,0.9-2,2-2h61.75c1.1,0,2.554,0.709,3.231,1.576
					l3.787,4.848c0.678,0.867,1.939,2.132,2.804,2.812l3.855,3.029C110.292,31.944,111,33.4,111,34.5V44z"/>
			</g>
			<g>
				<path fill="#FFAF82" d="M59,80c0,1.1-0.9,2-2,2H34c-1.1,0-2-0.9-2-2V57c0-1.1,0.9-2,2-2h23c1.1,0,2,0.9,2,2V80z"/>
			</g>
			<g>
				<path fill="#FFAF82" d="M111,58c0,1.1-0.9,2-2,2H70c-1.1,0-2-0.9-2-2v-1c0-1.1,0.9-2,2-2h39c1.1,0,2,0.9,2,2V58z"/>
			</g>
			<g>
				<path fill="#FFAF82" d="M111,69c0,1.1-0.9,2-2,2H70c-1.1,0-2-0.9-2-2v-1c0-1.1,0.9-2,2-2h39c1.1,0,2,0.9,2,2V69z"/>
			</g>
			<g>
				<path fill="#FFAF82" d="M111,80c0,1.1-0.9,2-2,2H70c-1.1,0-2-0.9-2-2v-1c0-1.1,0.9-2,2-2h39c1.1,0,2,0.9,2,2V80z"/>
			</g>
			<g>
				<path fill="#FFAF82" d="M111,104c0,1.1-0.9,2-2,2H70c-1.1,0-2-0.9-2-2v-1c0-1.1,0.9-2,2-2h39c1.1,0,2,0.9,2,2V104z"/>
			</g>
			<g>
				<path fill="#FFAF82" d="M111,115c0,1.1-0.9,2-2,2H70c-1.1,0-2-0.9-2-2v-1c0-1.1,0.9-2,2-2h39c1.1,0,2,0.9,2,2V115z"/>
			</g>
			<g>
				<path fill="#FFAF82" d="M111,129c0,1.1-0.9,2-2,2H94c-1.1,0-2-0.9-2-2v-1c0-1.1,0.9-2,2-2h15c1.1,0,2,0.9,2,2V129z"/>
			</g>
			<g>
				<path fill="#FFAF82" d="M59,129c0,1.1-0.9,2-2,2H35c-1.1,0-2-0.9-2-2v-1c0-1.1,0.9-2,2-2h22c1.1,0,2,0.9,2,2V129z"/>
			</g>
			<g>
				<path fill="#FFAF82" d="M111,93c0,1.1-0.9,2-2,2H70c-1.1,0-2-0.9-2-2v-1c0-1.1,0.9-2,2-2h39c1.1,0,2,0.9,2,2V93z"/>
			</g>
			<g>
				<path fill="#FFAF82" d="M59,115c0,1.1-0.9,2-2,2H34c-1.1,0-2-0.9-2-2V92c0-1.1,0.9-2,2-2h23c1.1,0,2,0.9,2,2V115z"/>
			</g>
			<path fill="#FFEBDC" d="M94,34.75c0,2.2,2.05,4.25,4.25,4.25H125L94,8V34.75z"/>
		</g>
		<g>
			<polygon fill="#FF6E73" points="132,142 116,142 116,76.75 117,74 131,74 132,77.625 	"/>
			<polygon fill="#D74646" points="123,142 116,142 116,77.125 117,74 123,74 	"/>
			<path fill="#EDC85F" d="M129.805,66.883l-1.942-3.977c-1.215,0.918-2.723,1.469-4.362,1.469c-1.295,0-2.508-0.344-3.56-0.938
				l-1.772,3.683c-1.192,2.479-2.168,6.756-2.168,9.506v0.215c0.912,0.495,1.952,0.785,3.062,0.785c2.334,0,4.371-1.246,5.5-3.104
				c1.129,1.858,3.166,3.104,5.5,3.104c0.676,0,1.326-0.104,1.938-0.296v-0.954C132,73.625,131.013,69.354,129.805,66.883z"/>
			<path fill="#495959" d="M127.862,62.906l-1.667-3.414c-0.604-1.236-1.396-2.852-2.188-2.849s-1.58,1.624-2.176,2.862l-1.892,3.931
				c1.052,0.595,2.265,0.938,3.56,0.938C125.14,64.375,126.647,63.824,127.862,62.906z"/>
		</g>
	</g>
</svg>
